# xmcd
#
# Track frame offsets:
#	150
#	24619
#	46342
#	99566
#	123300
#
# Disc length: 1939 seconds
#
# Revision: 1
# Processed by: cddbd v1.5.2PL0 Copyright (c) Steve Scherf et al.
# Submitted via: audiograbber 1.83.01
#
DISCID=39079105
DTITLE=Alex Oriental Experience - ...tough ain't enough!
DYEAR=2005
DGENRE=Blues
TTITLE0=tough ain't enough!
TTITLE1=dreams
TTITLE2=and
TTITLE3=sooner or later
TTITLE4=let's drink to
EXTD=
EXTT0=
EXTT1=
EXTT2=
EXTT3=
EXTT4=
PLAYORDER=
